<svg xmlns="http://www.w3.org/2000/svg" viewBox="0 0 86.03 89.8"><defs><style>.cls-1{fill:#010101;}.cls-2{fill:#060505;}</style></defs><g id="Layer_2" data-name="Layer 2"><g id="Layer_1-2" data-name="Layer 1"><path class="cls-1" d="M33.89,58.75c0-8-.18-16,.08-24,.11-3.67-.57-5.19-4.73-5-7.46.39-15,.07-22.44.12C2.64,30,0,28.25,0,23.89s2.76-6,6.89-6c12.47.06,24.94-.05,37.41.07a14.44,14.44,0,0,0,8.38-2.31c7.41-4.74,14.91-9.3,22.43-13.86,4.55-2.76,7.93-2.35,10,1s.74,6.6-3.68,9.3C72.51,17.56,63.56,23,54.65,28.38c-2.22,1.35-4.16,11.09-2.57,13,.93,1.12,2.08.28,3.14,0,7.42-1.68,14.85-3.33,22.27-5.07,3.52-.82,7-1,8.11,3.24s-1.79,5.9-5.45,6.71C71.92,48.14,63.69,50,55.46,51.89c-.64.15-1.31.22-1.94.4C45.78,54.5,43.87,57,43.87,65c0,6-.08,12,0,18,.07,3.74-.65,6.88-5.17,6.81-4.19-.07-4.91-3-4.87-6.6C34,75.05,33.89,66.9,33.89,58.75Z"/><path class="cls-2" d="M59.89,55.9a10,10,0,1,1-10,9.94A9.7,9.7,0,0,1,59.89,55.9Z"/></g></g></svg>